<svg viewBox="0 0 400 300" role="img" aria-label="Mock image of a code editor"><rect x="0" y="0" width="400" height="300" rx="0" fill="#1d1f25"/><rect x="0" y="0" width="400" height="24" rx="0" fill="#181d26"/><circle cx="14" cy="12" r="3.6" fill="#4a4f5a"/><circle cx="26" cy="12" r="3.6" fill="#4a4f5a"/><circle cx="38" cy="12" r="3.6" fill="#4a4f5a"/><text x="56" y="15.5" font-family="ui-monospace,monospace" font-size="8" fill="#9297a0">portfolio/app.py</text><rect x="0" y="24" width="96" height="276" rx="0" fill="#181d26"/><rect x="12" y="38" width="40" height="4" rx="2" fill="#9297a0"/><rect x="12" y="56" width="58" height="4" rx="2" fill="#4a4f5a"/><rect x="12" y="70" width="50" height="4" rx="2" fill="#4a4f5a"/><rect x="12" y="84" width="42" height="4" rx="2" fill="#4a4f5a"/><rect x="12" y="98" width="34" height="4" rx="2" fill="#4a4f5a"/><rect x="12" y="112" width="26" height="4" rx="2" fill="#4a4f5a"/><rect x="12" y="132" width="58" height="4" rx="2" fill="#fcab79"/><rect x="0" y="232" width="400" height="1" rx="0" fill="#2a2e37"/><text x="104" y="252" font-family="ui-monospace,monospace" font-size="8" fill="#a8d8c4">$ python app.py</text><text x="104" y="268" font-family="ui-monospace,monospace" font-size="8" fill="#9297a0">serving on 127.0.0.1:8000</text><text x="104" y="284" font-family="ui-monospace,monospace" font-size="8" fill="#f4d35e">2 tests passed</text><rect x="128" y="44" width="28" height="5" rx="2.5" fill="#fcab79"/><text x="104" y="48.5" font-family="ui-monospace,monospace" font-size="6.5" fill="#4a4f5a">1</text><rect x="141" y="59" width="28" height="5" rx="2.5" fill="#a8d8c4"/><text x="104" y="63.5" font-family="ui-monospace,monospace" font-size="6.5" fill="#4a4f5a">2</text><rect x="141" y="74" width="46" height="5" rx="2.5" fill="#5b616e"/><text x="104" y="78.5" font-family="ui-monospace,monospace" font-size="6.5" fill="#4a4f5a">3</text><rect x="128" y="89" width="28" height="5" rx="2.5" fill="#fcab79"/><text x="104" y="93.5" font-family="ui-monospace,monospace" font-size="6.5" fill="#4a4f5a">4</text><rect x="141" y="104" width="46" height="5" rx="2.5" fill="#5b616e"/><text x="104" y="108.5" font-family="ui-monospace,monospace" font-size="6.5" fill="#4a4f5a">5</text><rect x="141" y="119" width="28" height="5" rx="2.5" fill="#a8d8c4"/><text x="104" y="123.5" font-family="ui-monospace,monospace" font-size="6.5" fill="#4a4f5a">6</text><rect x="128" y="134" width="28" height="5" rx="2.5" fill="#fcab79"/><text x="104" y="138.5" font-family="ui-monospace,monospace" font-size="6.5" fill="#4a4f5a">7</text><rect x="141" y="149" width="28" height="5" rx="2.5" fill="#f4d35e"/><text x="104" y="153.5" font-family="ui-monospace,monospace" font-size="6.5" fill="#4a4f5a">8</text><rect x="128" y="164" width="46" height="5" rx="2.5" fill="#5b616e"/><text x="104" y="168.5" font-family="ui-monospace,monospace" font-size="6.5" fill="#4a4f5a">9</text><rect x="141" y="179" width="28" height="5" rx="2.5" fill="#a8d8c4"/><text x="104" y="183.5" font-family="ui-monospace,monospace" font-size="6.5" fill="#4a4f5a">10</text><rect x="128" y="194" width="46" height="5" rx="2.5" fill="#5b616e"/><text x="104" y="198.5" font-family="ui-monospace,monospace" font-size="6.5" fill="#4a4f5a">11</text><rect x="128" y="209" width="28" height="5" rx="2.5" fill="#fcab79"/><text x="104" y="213.5" font-family="ui-monospace,monospace" font-size="6.5" fill="#4a4f5a">12</text></svg>
